<svg width="28" height="28" viewBox="0 0 28 28" fill="none" xmlns="http://www.w3.org/2000/svg">
<g id="call">
<g id="call_2">
<path id="Vector" d="M25.6343 21.3864C25.6343 21.8064 25.5409 22.2381 25.3426 22.6581C25.1443 23.0781 24.8876 23.4747 24.5493 23.8481C23.9776 24.4781 23.3476 24.9331 22.6359 25.2247C21.9359 25.5164 21.1776 25.6681 20.3609 25.6681C19.1709 25.6681 17.8993 25.3881 16.5576 24.8164C15.2159 24.2447 13.8743 23.4747 12.5443 22.5064C11.2026 21.5264 9.93094 20.4414 8.7176 19.2397C7.51594 18.0264 6.43094 16.7547 5.4626 15.4247C4.50594 14.0947 3.73594 12.7647 3.17594 11.4464C2.61594 10.1164 2.33594 8.84472 2.33594 7.63138C2.33594 6.83805 2.47594 6.07972 2.75594 5.37972C3.03594 4.66805 3.47927 4.01472 4.0976 3.43138C4.84427 2.69638 5.66094 2.33472 6.52427 2.33472C6.85094 2.33472 7.1776 2.40472 7.46927 2.54472C7.7726 2.68472 8.04094 2.89472 8.25094 3.19805L10.9576 7.01305C11.1676 7.30472 11.3193 7.57305 11.4243 7.82972C11.5293 8.07472 11.5876 8.31972 11.5876 8.54138C11.5876 8.82138 11.5059 9.10138 11.3426 9.36972C11.1909 9.63805 10.9693 9.91805 10.6893 10.1981L9.8026 11.1197C9.67427 11.2481 9.61594 11.3997 9.61594 11.5864C9.61594 11.6797 9.6276 11.7614 9.65094 11.8547C9.68594 11.9481 9.72094 12.0181 9.74427 12.0881C9.95427 12.4731 10.3159 12.9747 10.8293 13.5814C11.3543 14.1881 11.9143 14.8064 12.5209 15.4247C13.1509 16.0431 13.7576 16.6147 14.3759 17.1397C14.9826 17.6531 15.4843 18.0031 15.8809 18.2131C15.9393 18.2364 16.0093 18.2714 16.0909 18.3064C16.1843 18.3414 16.2776 18.3531 16.3826 18.3531C16.5809 18.3531 16.7326 18.2831 16.8609 18.1547L17.7476 17.2797C18.0393 16.9881 18.3193 16.7664 18.5876 16.6264C18.8559 16.4631 19.1243 16.3814 19.4159 16.3814C19.6376 16.3814 19.8709 16.4281 20.1276 16.5331C20.3843 16.6381 20.6526 16.7897 20.9443 16.9881L24.8059 19.7297C25.1093 19.9397 25.3193 20.1847 25.4476 20.4764C25.5643 20.7681 25.6343 21.0597 25.6343 21.3864Z" stroke="#0D0D0D" stroke-width="1.5" stroke-miterlimit="10"/>
</g>
</g>
</svg>
