<svg width="40" height="40" viewBox="0 0 40 40" fill="none" xmlns="http://www.w3.org/2000/svg">
<g id="Group 35128">
<circle id="Ellipse 79" cx="20" cy="20" r="20" fill="#274497"/>
<path id="Vector" d="M11.875 12C10.8398 12 10 12.8398 10 13.875C10 14.4648 10.2773 15.0195 10.75 15.375L19.25 21.75C19.6953 22.082 20.3047 22.082 20.75 21.75L29.25 15.375C29.7227 15.0195 30 14.4648 30 13.875C30 12.8398 29.1602 12 28.125 12H11.875ZM10 16.375V24.5C10 25.8789 11.1211 27 12.5 27H27.5C28.8789 27 30 25.8789 30 24.5V16.375L21.5 22.75C21.0675 23.0752 20.5411 23.251 20 23.251C19.4589 23.251 18.9325 23.0752 18.5 22.75L10 16.375Z" fill="white"/>
</g>
</svg>
