<svg width="165" height="315" viewBox="0 0 165 315" fill="none" xmlns="http://www.w3.org/2000/svg">
<path d="M147.071 37.3387C145.418 40.3707 142.868 41.8867 139.423 41.8867C137.355 41.8867 135.012 41.1287 132.394 39.6127C129.775 38.0967 126.537 36.5118 122.678 34.858C118.819 33.0664 114.202 31.4126 108.827 29.8966C103.59 28.3806 97.2504 27.6226 89.8083 27.6226C82.9174 27.6226 76.7845 28.4495 71.4096 30.1033C66.0347 31.6193 61.4868 33.7555 57.7657 36.5118C54.0446 39.2682 51.2193 42.5069 49.2899 46.228C47.3605 49.8112 46.3957 53.6701 46.3957 57.8047C46.3957 62.7661 48.0495 67.1763 51.3572 71.0351C54.8026 74.7562 59.2817 78.2017 64.7944 81.3715C70.4449 84.5413 76.7845 87.5733 83.8132 90.4674C90.9797 93.2238 98.2151 96.1869 105.519 99.3567C112.962 102.389 120.197 105.696 127.226 109.28C134.392 112.863 140.732 117.066 146.245 121.89C151.895 126.576 156.374 131.951 159.682 138.014C163.127 144.078 164.85 151.176 164.85 159.307C164.85 170.195 162.163 179.911 156.788 188.456C151.413 197 142.868 203.753 131.154 208.715C138.044 213.539 143.626 219.258 147.898 225.873C152.171 232.351 154.307 240.137 154.307 249.233C154.307 258.605 152.515 267.287 148.932 275.281C145.487 283.136 140.387 289.958 133.634 295.747C126.881 301.673 118.543 306.29 108.62 309.597C98.6975 312.905 87.3276 314.559 74.5105 314.559C59.764 314.559 46.3957 312.216 34.4056 307.53C22.5533 302.982 12.4237 297.056 4.01683 289.752L12.4926 276.108C14.5599 272.524 17.7986 270.733 22.2087 270.733C24.6895 270.733 27.308 271.698 30.0643 273.627C32.8207 275.419 36.1972 277.417 40.1939 279.622C44.3285 281.827 49.3588 283.894 55.285 285.824C61.2111 287.615 68.6533 288.511 77.6114 288.511C91.9444 288.511 102.97 285.479 110.688 279.415C118.543 273.214 122.471 265.151 122.471 255.228C122.471 249.302 120.679 244.203 117.096 239.931C113.651 235.52 109.034 231.662 103.245 228.354C97.595 224.908 91.0486 221.808 83.6065 219.051C76.3021 216.157 68.7911 213.263 61.0733 210.369C53.4933 207.475 46.0512 204.305 38.7469 200.859C31.4425 197.414 24.8962 193.348 19.1079 188.662C13.4573 183.977 8.84044 178.602 5.25718 172.538C1.81174 166.336 0.0890244 158.963 0.0890244 150.418C0.0890244 139.944 3.0521 130.572 8.97826 122.303C15.0422 114.034 24.5516 107.488 37.5065 102.664C30.6156 97.7028 24.9651 91.7767 20.5549 84.8858C16.2826 77.8571 14.1464 69.3813 14.1464 59.4585C14.1464 51.6029 15.8002 44.1607 19.1079 37.132C22.4155 29.9655 27.2391 23.6948 33.5787 18.3199C40.0561 12.945 47.9117 8.67269 57.1455 5.50289C66.5171 2.33308 77.198 0.74818 89.1881 0.74818C102.97 0.74818 115.373 2.81544 126.399 6.94997C137.562 11.0845 147.14 16.8728 155.134 24.315L147.071 37.3387ZM32.3383 144.836C32.3383 149.384 33.4409 153.45 35.646 157.033C37.9889 160.479 41.0898 163.717 44.9486 166.749C48.8075 169.644 53.2866 172.331 58.3859 174.812C63.6229 177.293 69.1356 179.773 74.924 182.254C80.8501 184.597 86.8452 187.009 92.9092 189.489C99.111 191.832 105.175 194.382 111.101 197.138C118.957 193.693 124.538 189.489 127.846 184.528C131.154 179.429 132.807 173.778 132.807 167.576C132.807 160.41 130.464 154.415 125.779 149.591C121.231 144.63 115.305 140.22 108 136.361C100.834 132.502 92.8403 128.919 84.0199 125.611C75.1996 122.303 66.586 118.651 58.1791 114.654C48.8075 118.651 42.1234 123.13 38.1267 128.092C34.2678 132.915 32.3383 138.497 32.3383 144.836Z" fill="white" fill-opacity="0.65"/>
</svg>
